<svg xmlns="http://www.w3.org/2000/svg" xmlns:xlink="http://www.w3.org/1999/xlink" viewBox="0,0,256,256" width="96px" height="96px" fill-rule="nonzero"><defs><linearGradient x1="36.319" y1="28.8" x2="1.183" y2="22.582" gradientUnits="userSpaceOnUse" id="color-1"><stop offset="0" stop-color="#111aff"></stop><stop offset="1" stop-color="#262626" stop-opacity="0"></stop></linearGradient><linearGradient x1="26.224" y1="92.752" x2="19.381" y2="-6.846" gradientUnits="userSpaceOnUse" id="color-2"><stop offset="0" stop-color="#262626" stop-opacity="0"></stop><stop offset="1" stop-color="#111aff"></stop></linearGradient><linearGradient x1="13.843" y1="53.869" x2="44.23" y2="-29.511" gradientUnits="userSpaceOnUse" id="color-3"><stop offset="0" stop-color="#262626" stop-opacity="0"></stop><stop offset="1" stop-color="#111aff"></stop></linearGradient></defs><g fill="none" fill-rule="nonzero" stroke="none" stroke-width="1" stroke-linecap="butt" stroke-linejoin="miter" stroke-miterlimit="10" stroke-dasharray="" stroke-dashoffset="0" font-family="none" font-weight="none" font-size="none" text-anchor="none" style="mix-blend-mode: normal"><g transform="scale(5.33333,5.33333)"><path d="M35,27l-6,-4v2h-5.5l-2.5,5h8l-0.059,2z" fill="url(#color-1)"></path><path d="M28.941,32l6.059,-5l-0.059,8h-6zM28,4l-20,40h6l15,-30v9l6,4v-23z" fill="url(#color-2)"></path><path d="M23.5,25l5.5,-11v11zM24,8c-9.941,0 -18,8.059 -18,18c0,4.751 1.854,9.059 4.862,12.276l15.083,-30.167c-0.639,-0.069 -1.287,-0.109 -1.945,-0.109zM35,11.774v15.226l-0.06,8h-6v-3l0.06,-2h-8l-5.836,11.672c2.612,1.476 5.622,2.328 8.836,2.328c9.941,0 18,-8.059 18,-18c0,-5.794 -2.748,-10.934 -7,-14.226z" fill="url(#color-3)"></path></g></g></svg>